<svg width="20" height="21" viewBox="0 0 20 21" fill="none" xmlns="http://www.w3.org/2000/svg">
<path d="M13.3156 12.5598H12.6573L12.424 12.3348C13.424 11.1681 13.9406 9.57643 13.6573 7.88477C13.2656 5.5681 11.3323 3.7181 8.99896 3.43477C5.47396 3.00143 2.50729 5.9681 2.94063 9.4931C3.22396 11.8264 5.07396 13.7598 7.39063 14.1514C9.08229 14.4348 10.674 13.9181 11.8406 12.9181L12.0656 13.1514V13.8098L15.6073 17.3514C15.949 17.6931 16.5073 17.6931 16.849 17.3514C17.1906 17.0098 17.1906 16.4514 16.849 16.1098L13.3156 12.5598ZM8.31563 12.5598C6.24063 12.5598 4.56563 10.8848 4.56563 8.80977C4.56563 6.73477 6.24063 5.05977 8.31563 5.05977C10.3906 5.05977 12.0656 6.73477 12.0656 8.80977C12.0656 10.8848 10.3906 12.5598 8.31563 12.5598Z" fill="black"/>
</svg>
