<svg width="16" height="17" viewBox="0 0 16 17" fill="none" xmlns="http://www.w3.org/2000/svg">
<path d="M3.00098 4.66602H7.16797V4.99902H2.50098V14.1465H11.501V9.33301H11.835V13.499C11.835 13.9562 11.4582 14.333 11.001 14.333H3.00098C2.54393 14.3328 2.16797 13.9561 2.16797 13.499V5.49902C2.16815 5.04209 2.54404 4.66619 3.00098 4.66602ZM9.16797 11.333V11.666H4.83496V11.333H9.16797ZM9.16797 9.33301V9.66602H4.83496V9.33301H9.16797ZM9.16797 7.33301V7.66602H4.83496V7.33301H9.16797ZM11.835 2.66602V4.66602H13.835V4.99902H11.835V6.99414C11.7808 6.99432 11.7247 6.99498 11.6689 6.99512C11.6123 6.99526 11.5558 6.99504 11.501 6.99512V4.99902H9.50293C9.5031 4.94599 9.50377 4.89147 9.50391 4.83691C9.50405 4.77966 9.50382 4.72181 9.50391 4.66602H11.501V2.66602H11.835Z" stroke="white"/>
</svg>
