<svg width="16" height="17" viewBox="0 0 16 17" fill="none" xmlns="http://www.w3.org/2000/svg">
<path d="M12.0007 9.16732H8.66732V12.5007C8.66732 12.8673 8.36732 13.1673 8.00065 13.1673C7.63398 13.1673 7.33398 12.8673 7.33398 12.5007V9.16732H4.00065C3.63398 9.16732 3.33398 8.86732 3.33398 8.50065C3.33398 8.13398 3.63398 7.83398 4.00065 7.83398H7.33398V4.50065C7.33398 4.13398 7.63398 3.83398 8.00065 3.83398C8.36732 3.83398 8.66732 4.13398 8.66732 4.50065V7.83398H12.0007C12.3673 7.83398 12.6673 8.13398 12.6673 8.50065C12.6673 8.86732 12.3673 9.16732 12.0007 9.16732Z" fill="white"/>
</svg>
