<svg width="18" height="18" viewBox="0 0 18 18" fill="none" xmlns="http://www.w3.org/2000/svg">
<path d="M6.75015 3.71413H4.65015C3.81007 3.71413 3.38972 3.71413 3.06885 3.87563C2.7866 4.01768 2.5573 4.24419 2.41349 4.52299C2.25 4.83995 2.25 5.25517 2.25 6.08501V13.1972C2.25 14.027 2.25 14.4417 2.41349 14.7587C2.5573 15.0375 2.7866 15.2644 3.06885 15.4064C3.3894 15.5678 3.80925 15.5678 4.64768 15.5678H11.8523C12.6908 15.5678 13.11 15.5678 13.4305 15.4064C13.7128 15.2644 13.9429 15.0373 14.0867 14.7585C14.25 14.4418 14.25 14.0276 14.25 13.1993V11.1227M11.25 4.45498L6.75 8.9001V11.1227H9L13.5 6.67754M11.25 4.45498L13.5 2.23242L15.75 4.45498L13.5 6.67754M11.25 4.45498L13.5 6.67754" stroke="#6B6B70" stroke-width="2" stroke-linecap="round" stroke-linejoin="round"/>
</svg>
