<svg width="16" height="16" viewBox="0 0 16 16" fill="none" xmlns="http://www.w3.org/2000/svg">
<path d="M5.12676 12.9296C4.73347 13.0595 4.52001 13.4837 4.64999 13.877C4.77996 14.2703 5.20415 14.4838 5.59745 14.3538L5.12676 12.9296ZM9.24146 13.8981L9.17399 13.1511L9.24146 13.8981ZM11.5691 13.3853L11.8957 14.0604L11.5691 13.3853ZM13.7931 11.3794L13.2123 10.9049V10.9049L13.7931 11.3794ZM12.272 10.1243L12.8 10.6569L12.272 10.1243ZM11.2477 11.1398L11.7757 11.6724L11.2477 11.1398ZM8.46559 10.8404C8.05137 10.8404 7.71559 11.1762 7.71559 11.5904C7.71559 12.0046 8.05137 12.3404 8.46559 12.3404V10.8404ZM13.5567 9.99813L13.1431 10.6238L13.5567 9.99813ZM6.14935 9.66168L6.48245 10.3337L6.48245 10.3336L6.14935 9.66168ZM8.93338 9.40919L9.12915 8.68519L9.12915 8.68519L8.93338 9.40919ZM10.0206 9.70317L9.82483 10.4272H9.82483L10.0206 9.70317ZM10.3651 10.9892L9.83702 10.4566H9.83702L10.3651 10.9892ZM9.23066 11.0578C8.93651 11.3494 8.93447 11.8243 9.2261 12.1184C9.51773 12.4126 9.9926 12.4146 10.2868 12.123L9.23066 11.0578ZM5.36211 13.6417L5.59745 14.3538C5.64637 14.3376 5.78297 14.3185 6.06083 14.3381C6.32344 14.3567 6.63222 14.4025 6.99241 14.4586C7.6691 14.564 8.54975 14.7136 9.30892 14.645L9.24146 13.8981L9.17399 13.1511C8.64005 13.1994 7.96896 13.0926 7.22322 12.9765C6.8722 12.9218 6.50209 12.8656 6.16663 12.8419C5.84642 12.8192 5.46578 12.8175 5.12676 12.9296L5.36211 13.6417ZM9.24146 13.8981L9.30892 14.645C10.307 14.5549 10.8255 14.5782 11.8957 14.0604L11.5691 13.3853L11.2424 12.7101C10.4613 13.0881 10.2274 13.056 9.17399 13.1511L9.24146 13.8981ZM11.5691 13.3853L11.8957 14.0604C12.8674 13.5903 13.8172 12.5354 14.374 11.8538L13.7931 11.3794L13.2123 10.9049C12.6482 11.5954 11.8823 12.4005 11.2424 12.7101L11.5691 13.3853ZM12.272 10.1243L11.744 9.59165L10.7196 10.6072L11.2477 11.1398L11.7757 11.6724L12.8 10.6569L12.272 10.1243ZM10.1504 11.5904V10.8404H8.46559V11.5904V12.3404H10.1504V11.5904ZM11.2477 11.1398L10.7196 10.6072C10.5698 10.7558 10.3652 10.8404 10.1504 10.8404V11.5904V12.3404C10.7588 12.3404 11.3436 12.1008 11.7757 11.6724L11.2477 11.1398ZM13.5567 9.99813L13.9702 9.37245C13.2708 8.91018 12.34 9.00073 11.744 9.59165L12.272 10.1243L12.8 10.6569C12.8904 10.5673 13.0349 10.5523 13.1431 10.6238L13.5567 9.99813ZM13.7931 11.3794L14.374 11.8538C15.0352 11.0444 14.7809 9.90831 13.9702 9.37245L13.5567 9.99813L13.1431 10.6238C13.207 10.666 13.2383 10.7231 13.2472 10.7732C13.2556 10.8199 13.246 10.8637 13.2123 10.9049L13.7931 11.3794ZM2.51725 9.02629V9.77629H4.58623V9.02629V8.27629H2.51725V9.02629ZM5.10348 9.53911H4.35348V14.1545H5.10348H5.85348V9.53911H5.10348ZM4.58623 14.6673V13.9173H2.51725V14.6673V15.4173H4.58623V14.6673ZM2 14.1545H2.75V9.53911H2H1.25V14.1545H2ZM2.51725 14.6673V13.9173C2.6397 13.9173 2.75 14.0174 2.75 14.1545H2H1.25C1.25 14.858 1.82346 15.4173 2.51725 15.4173V14.6673ZM5.10348 14.1545H4.35348C4.35348 14.0174 4.46378 13.9173 4.58623 13.9173V14.6673V15.4173C5.28002 15.4173 5.85348 14.858 5.85348 14.1545H5.10348ZM4.58623 9.02629V9.77629C4.46378 9.77629 4.35348 9.67617 4.35348 9.53911H5.10348H5.85348C5.85348 8.83561 5.28003 8.27629 4.58623 8.27629V9.02629ZM2.51725 9.02629V8.27629C1.82346 8.27629 1.25 8.83561 1.25 9.53911H2H2.75C2.75 9.67617 2.6397 9.77629 2.51725 9.77629V9.02629ZM5.36211 10.0519L5.69521 10.7239L6.48245 10.3337L6.14935 9.66168L5.81624 8.98972L5.029 9.37997L5.36211 10.0519ZM7.76858 9.2827V10.0327H7.98071V9.2827V8.5327H7.76858V9.2827ZM8.93338 9.40919L8.73762 10.1332L9.82483 10.4272L10.0206 9.70317L10.2164 8.97917L9.12915 8.68519L8.93338 9.40919ZM10.3651 10.9892L9.83702 10.4566L9.23066 11.0578L9.7587 11.5904L10.2868 12.123L10.8931 11.5218L10.3651 10.9892ZM10.0206 9.70317L9.82483 10.4272C9.83156 10.429 9.83465 10.4307 9.83547 10.4312C9.83641 10.4318 9.83683 10.4322 9.83715 10.4325C9.83806 10.4334 9.84041 10.4365 9.84186 10.4419C9.84331 10.4473 9.8426 10.4503 9.84264 10.4502C9.84271 10.4499 9.84284 10.4497 9.84274 10.4498C9.84271 10.4499 9.84142 10.4523 9.83702 10.4566L10.3651 10.9892L10.8931 11.5218C11.7294 10.6927 11.3429 9.28377 10.2164 8.97917L10.0206 9.70317ZM7.98071 9.2827V10.0327C8.23645 10.0327 8.491 10.0665 8.73762 10.1332L8.93338 9.40919L9.12915 8.68519C8.75481 8.58397 8.3686 8.5327 7.98071 8.5327V9.2827ZM6.14935 9.66168L6.48245 10.3336C6.88149 10.1358 7.32184 10.0327 7.76858 10.0327V9.2827V8.5327C7.09112 8.5327 6.42272 8.68907 5.81624 8.98972L6.14935 9.66168ZM11.8277 5.43655H11.0777C11.0777 6.14916 10.4933 6.73783 9.7587 6.73783V7.48783V8.23783C11.3095 8.23783 12.5777 6.98972 12.5777 5.43655H11.8277ZM9.7587 7.48783V6.73783C9.02416 6.73783 8.43972 6.14916 8.43972 5.43655H7.68972H6.93972C6.93972 6.98972 8.20791 8.23783 9.7587 8.23783V7.48783ZM7.68972 5.43655H8.43972C8.43972 4.72393 9.02416 4.13527 9.7587 4.13527V3.38527V2.63527C8.20791 2.63527 6.93972 3.88338 6.93972 5.43655H7.68972ZM9.7587 3.38527V4.13527C10.4933 4.13527 11.0777 4.72393 11.0777 5.43655H11.8277H12.5777C12.5777 3.88338 11.3095 2.63527 9.7587 2.63527V3.38527ZM7.68972 5.43655V4.68655C6.95517 4.68655 6.37073 4.09788 6.37073 3.38527H5.62073H4.87073C4.87073 4.93844 6.13892 6.18655 7.68972 6.18655V5.43655ZM5.62073 3.38527H6.37073C6.37073 2.67265 6.95517 2.08398 7.68972 2.08398V1.33398V0.583984C6.13892 0.583984 4.87073 1.8321 4.87073 3.38527H5.62073ZM7.68972 1.33398V2.08398C8.42426 2.08398 9.0087 2.67265 9.0087 3.38527H9.7587H10.5087C10.5087 1.8321 9.24051 0.583984 7.68972 0.583984V1.33398Z" fill="black"/>
</svg>
