<svg width="18" height="18" viewBox="0 0 18 18" fill="none" xmlns="http://www.w3.org/2000/svg">
<path d="M6 3.75H5.40015C4.56007 3.75 4.13972 3.75 3.81885 3.91349C3.5366 4.0573 3.3073 4.2866 3.16349 4.56885C3 4.88972 3 5.31007 3 6.15015V6.75M6 3.75H12M6 3.75V2.25M12 3.75H12.6001C13.4402 3.75 13.8597 3.75 14.1805 3.91349C14.4628 4.0573 14.6929 4.2866 14.8367 4.56885C15 4.8894 15 5.30925 15 6.14768V6.75M12 3.75V2.25M3 6.75V13.3501C3 14.1902 3 14.61 3.16349 14.9309C3.3073 15.2132 3.5366 15.4429 3.81885 15.5867C4.1394 15.75 4.55925 15.75 5.39768 15.75H12.6023C13.4408 15.75 13.86 15.75 14.1805 15.5867C14.4628 15.4429 14.6929 15.2132 14.8367 14.9309C15 14.6104 15 14.1911 15 13.3527V6.75M3 6.75H15M12 12.75H12.0015L12.0015 12.7515L12 12.7515V12.75ZM9 12.75H9.0015L9.00146 12.7515L9 12.7515V12.75ZM6 12.75H6.0015L6.00146 12.7515L6 12.7515V12.75ZM12.0015 9.75V9.7515L12 9.75146V9.75H12.0015ZM9 9.75H9.0015L9.00146 9.7515L9 9.75146V9.75ZM6 9.75H6.0015L6.00146 9.7515L6 9.75146V9.75Z" stroke="black" stroke-width="2" stroke-linecap="round" stroke-linejoin="round"/>
</svg>
