<svg width="16" height="16" viewBox="0 0 16 16" fill="none" xmlns="http://www.w3.org/2000/svg">
<path d="M4.60887 4.62403C4.23774 4.62403 3.93687 4.9249 3.93687 5.29603C3.93687 5.66716 4.23774 5.96803 4.60887 5.96803V4.62403ZM10.8809 5.96803C11.252 5.96803 11.5529 5.66716 11.5529 5.29603C11.5529 4.9249 11.252 4.62403 10.8809 4.62403V5.96803ZM5.39287 6.9169C5.02174 6.9169 4.72087 7.21777 4.72087 7.5889C4.72087 7.96002 5.02174 8.2609 5.39287 8.2609V6.9169ZM10.0969 8.2609C10.468 8.2609 10.7689 7.96002 10.7689 7.5889C10.7689 7.21777 10.468 6.9169 10.0969 6.9169V8.2609ZM4.75492 1.4728V0.800781L4.75002 0.800817L4.75492 1.4728ZM10.7357 1.4728L10.7408 0.800799H10.7357V1.4728ZM14.0169 4.80323L13.3449 4.79829V4.80323H14.0169ZM14.0169 8.84688H13.3449V8.85181L14.0169 8.84688ZM10.7348 12.1773V12.8493H10.7398L10.7348 12.1773ZM4.75492 12.1773V11.5053C4.63986 11.5053 4.52673 11.5349 4.42636 11.5911L4.75492 12.1773ZM1.47287 14.0168H0.800871C0.800871 14.2553 0.927341 14.476 1.13317 14.5966C1.33899 14.7172 1.59333 14.7196 1.80142 14.603L1.47287 14.0168ZM1.47287 4.80323H2.14489L2.14485 4.79829L1.47287 4.80323ZM4.60887 5.96803H10.8809V4.62403H4.60887V5.96803ZM5.39287 8.2609H10.0969V6.9169H5.39287V8.2609ZM4.75492 2.1448H10.7357V0.800799L4.75492 0.800781V2.1448ZM10.7306 2.14478C12.1853 2.15578 13.3555 3.3437 13.3449 4.79829L14.6889 4.80817C14.705 2.61144 12.9375 0.817411 10.7408 0.800799L10.7306 2.14478ZM13.3449 4.80323V8.84688H14.6889V4.80323H13.3449ZM13.3449 8.85181C13.35 9.55051 13.0774 10.2225 12.5869 10.7201L13.5442 11.6635C14.2849 10.912 14.6966 9.89708 14.6889 8.84195L13.3449 8.85181ZM12.5869 10.7201C12.0966 11.2178 11.4286 11.5002 10.7299 11.5053L10.7398 12.8493C11.7948 12.8416 12.8037 12.4151 13.5442 11.6635L12.5869 10.7201ZM10.7348 11.5053H4.75492V12.8493H10.7348V11.5053ZM4.42636 11.5911L1.14432 13.4306L1.80142 14.603L5.08347 12.7635L4.42636 11.5911ZM2.14487 14.0168L2.14489 4.80323H0.800871V14.0168H2.14487ZM2.14485 4.79829C2.13972 4.09965 2.41234 3.42758 2.90275 2.92994L1.94547 1.98657C1.20486 2.73809 0.793138 3.75307 0.800889 4.80817L2.14485 4.79829ZM2.90275 2.92994C3.39316 2.43231 4.06116 2.14987 4.75982 2.14478L4.75002 0.800817C3.69492 0.808505 2.68608 1.23504 1.94547 1.98657L2.90275 2.92994Z" fill="#6B6B70"/>
</svg>
