<svg width="16" height="16" viewBox="0 0 16 16" fill="none" xmlns="http://www.w3.org/2000/svg">
<g clip-path="url(#clip0_15588_35511)">
<path d="M13.4008 13.5988H2.60078V2.60078H13.4008C13.4008 2.60078 13.4008 1.50372 13.4008 0.800781C9.18312 0.800781 2.60078 0.800781 2.60078 0.800781C1.61078 0.800781 0.800781 1.61078 0.800781 2.60078C0.800781 3.59078 0.800781 13.4008 0.800781 13.4008C0.800781 14.3908 1.61078 15.2008 2.60078 15.2008H13.4008C14.3908 15.2008 15.2008 14.3908 15.2008 13.4008C15.2008 13.4008 15.2008 3.55249 15.2008 2.60078C15.2008 1.64907 14.3008 0.800781 13.4008 0.800781C13.4008 5.79871 13.4008 13.5988 13.4008 13.5988Z" fill="#6B6B70"/>
<path d="M11.6008 4.40078H4.40078V6.20078H11.6008V4.40078Z" fill="#6B6B70"/>
<path d="M4.40078 7.10078V8.90078H11.6008V7.10078H4.40078Z" fill="#6B6B70"/>
<path d="M11.6008 9.80078H4.40078V11.6008H11.6008V9.80078Z" fill="#6B6B70"/>
</g>
<defs>
<clipPath id="clip0_15588_35511">
<rect width="16" height="16" fill="white"/>
</clipPath>
</defs>
</svg>
