<svg width="16" height="16" viewBox="0 0 16 16" fill="none" xmlns="http://www.w3.org/2000/svg">
<path d="M6.79922 5.20078C7.163 3.59759 8.59674 2.40078 10.31 2.40078C12.2982 2.40078 13.91 4.01256 13.91 6.00078C13.91 7.84246 12.5271 9.36113 10.743 9.575M4.39922 4.00078L5.99922 2.40078L4.39922 0.800781M1.19922 5.60078V4.53411C1.19922 3.35591 2.15434 2.40078 3.33255 2.40078H4.93255M11.5992 12.0008L9.99922 13.6008L11.5992 15.2008M14.7992 10.4008V11.4674C14.7992 12.6457 13.8441 13.6008 12.6659 13.6008H11.0659M8.39922 10.8008C8.39922 12.789 6.78744 14.4008 4.79922 14.4008C2.81099 14.4008 1.19922 12.789 1.19922 10.8008C1.19922 8.81255 2.81099 7.20078 4.79922 7.20078C6.78744 7.20078 8.39922 8.81255 8.39922 10.8008Z" stroke="#00B5AE" stroke-width="1.5" stroke-linecap="round" stroke-linejoin="round"/>
</svg>
