<svg width="18" height="18" viewBox="0 0 18 18" fill="none" xmlns="http://www.w3.org/2000/svg">
<path d="M7.64961 5.85039C8.05887 4.0468 9.67182 2.70039 11.5993 2.70039C13.836 2.70039 15.6493 4.51364 15.6493 6.75039C15.6493 8.82227 14.0935 10.5308 12.0864 10.7714M4.94961 4.50039L6.74961 2.70039L4.94961 0.900391M1.34961 6.30039V5.10039C1.34961 3.77491 2.42413 2.70039 3.74961 2.70039H5.54961M13.0496 13.5004L11.2496 15.3004L13.0496 17.1004M16.6496 11.7004V12.9004C16.6496 14.2259 15.5751 15.3004 14.2496 15.3004H12.4496M9.44961 12.1504C9.44961 14.3871 7.63636 16.2004 5.39961 16.2004C3.16286 16.2004 1.34961 14.3871 1.34961 12.1504C1.34961 9.91364 3.16286 8.10039 5.39961 8.10039C7.63636 8.10039 9.44961 9.91364 9.44961 12.1504Z" stroke="black" stroke-width="1.5" stroke-linecap="round" stroke-linejoin="round"/>
</svg>
