<svg width="16" height="16" viewBox="0 0 16 16" fill="none" xmlns="http://www.w3.org/2000/svg">
<path d="M5.33464 3.33333H4.80143C4.0547 3.33333 3.68105 3.33333 3.39583 3.47866C3.14495 3.60649 2.94112 3.81032 2.81329 4.0612C2.66797 4.34641 2.66797 4.72006 2.66797 5.4668V6M5.33464 3.33333H10.668M5.33464 3.33333V2M10.668 3.33333H11.2014C11.9482 3.33333 12.321 3.33333 12.6062 3.47866C12.8571 3.60649 13.0616 3.81032 13.1895 4.0612C13.3346 4.34613 13.3346 4.71933 13.3346 5.46461V6M10.668 3.33333V2M2.66797 6V11.8668C2.66797 12.6135 2.66797 12.9867 2.81329 13.2719C2.94112 13.5228 3.14495 13.727 3.39583 13.8548C3.68077 14 4.05396 14 4.79924 14H11.2034C11.9486 14 12.3213 14 12.6062 13.8548C12.8571 13.727 13.0616 13.5228 13.1895 13.2719C13.3346 12.987 13.3346 12.6143 13.3346 11.8691V6M2.66797 6H13.3346M10.668 11.3333H10.6693L10.6693 11.3347L10.668 11.3346V11.3333ZM8.0013 11.3333H8.00264L8.0026 11.3347L8.0013 11.3346V11.3333ZM5.33464 11.3333H5.33597L5.33594 11.3347L5.33464 11.3346V11.3333ZM10.6693 8.66667V8.668L10.668 8.66797V8.66667H10.6693ZM8.0013 8.66667H8.00264L8.0026 8.668L8.0013 8.66797V8.66667ZM5.33464 8.66667H5.33597L5.33594 8.668L5.33464 8.66797V8.66667Z" stroke="#6B6B70" stroke-width="2" stroke-linecap="round" stroke-linejoin="round"/>
</svg>
