<svg width="16" height="16" viewBox="0 0 16 16" fill="none" xmlns="http://www.w3.org/2000/svg">
<g clip-path="url(#clip0_15560_39860)">
<path d="M15.1516 6.35389C15.1516 5.93968 14.8158 5.60389 14.4016 5.60389C13.9873 5.60389 13.6516 5.93968 13.6516 6.35389H15.1516ZM9.64728 2.34961C10.0615 2.34961 10.3973 2.01382 10.3973 1.59961C10.3973 1.1854 10.0615 0.849609 9.64728 0.849609V2.34961ZM4.4149 9.68294C4.16637 10.0143 4.23353 10.4844 4.5649 10.7329C4.89627 10.9815 5.36637 10.9143 5.6149 10.5829L4.4149 9.68294ZM7.5749 6.71961L8.10512 6.18918C7.95137 6.03549 7.7385 5.95607 7.52166 5.9715C7.30481 5.98693 7.10533 6.0957 6.9749 6.26961L7.5749 6.71961ZM9.28223 8.42628L8.752 8.95671C8.90576 9.11041 9.11866 9.18983 9.33552 9.17438C9.55238 9.15893 9.75186 9.05014 9.88229 8.8762L9.28223 8.42628ZM12.4416 5.46287C12.6901 5.13147 12.6229 4.66137 12.2915 4.41289C11.9601 4.1644 11.49 4.23162 11.2415 4.56302L12.4416 5.46287ZM14.4016 6.35389H13.6516V12.6929H14.4016H15.1516V6.35389H14.4016ZM14.4016 12.6929H13.6516C13.6516 13.2213 13.2232 13.6496 12.6949 13.6496V14.3996V15.1496C14.0517 15.1496 15.1516 14.0497 15.1516 12.6929H14.4016ZM12.6949 14.3996V13.6496H3.30823V14.3996V15.1496H12.6949V14.3996ZM3.30823 14.3996V13.6496C2.77988 13.6496 2.35156 13.2213 2.35156 12.6929H1.60156H0.851562C0.851562 14.0497 1.95145 15.1496 3.30823 15.1496V14.3996ZM1.60156 12.6929H2.35156V3.30628H1.60156H0.851562V12.6929H1.60156ZM1.60156 3.30628H2.35156C2.35156 2.77792 2.77988 2.34961 3.30823 2.34961V1.59961V0.849609C1.95145 0.849609 0.851562 1.9495 0.851562 3.30628H1.60156ZM3.30823 1.59961V2.34961H9.64728V1.59961V0.849609H3.30823V1.59961ZM13.5482 3.30628V4.05628C14.4337 4.05628 15.1516 3.33844 15.1516 2.45294H14.4016H13.6516C13.6516 2.51001 13.6053 2.55628 13.5482 2.55628V3.30628ZM14.4016 2.45294H15.1516C15.1516 1.56745 14.4337 0.849609 13.5482 0.849609V1.59961V2.34961C13.6053 2.34961 13.6516 2.39587 13.6516 2.45294H14.4016ZM13.5482 1.59961V0.849609C12.6627 0.849609 11.9449 1.56745 11.9449 2.45294H12.6949H13.4449C13.4449 2.39587 13.4912 2.34961 13.5482 2.34961V1.59961ZM12.6949 2.45294H11.9449C11.9449 3.33844 12.6627 4.05628 13.5482 4.05628V3.30628V2.55628C13.4912 2.55628 13.4449 2.51001 13.4449 2.45294H12.6949ZM5.0149 10.1329L5.6149 10.5829L8.1749 7.16961L7.5749 6.71961L6.9749 6.26961L4.4149 9.68294L5.0149 10.1329ZM7.5749 6.71961L7.04467 7.25004L8.752 8.95671L9.28223 8.42628L9.81246 7.89584L8.10512 6.18918L7.5749 6.71961ZM9.28223 8.42628L9.88229 8.8762L12.4416 5.46287L11.8416 5.01294L11.2415 4.56302L8.68217 7.97635L9.28223 8.42628Z" fill="#6B6B70"/>
</g>
<defs>
<clipPath id="clip0_15560_39860">
<rect width="16" height="16" fill="white"/>
</clipPath>
</defs>
</svg>
