<svg width="14" height="13" viewBox="0 0 14 13" fill="none" xmlns="http://www.w3.org/2000/svg">
<path d="M6.96875 1.27344C8.30498 1.2736 9.52912 2.0186 10.1387 3.15723L10.2793 3.4209H10.959C12.3805 3.4209 13.4999 4.55112 13.5 6.04492C13.5 7.53883 12.3171 8.73438 10.8955 8.73438H7.10156V11.5771C7.10156 11.6626 7.07597 11.6934 7.06934 11.7002C7.06397 11.7057 7.04071 11.7275 6.96875 11.7275C6.89645 11.7275 6.87256 11.7057 6.86719 11.7002C6.86046 11.6932 6.83496 11.6623 6.83496 11.5771V4.74902L5.97656 5.63086L5.34277 6.28223C5.33191 6.29334 5.3248 6.29718 5.32031 6.29883C5.31461 6.30091 5.30263 6.30373 5.2832 6.30273C5.24214 6.30054 5.18538 6.27939 5.13086 6.24023C5.12854 6.23307 5.12402 6.22004 5.12402 6.19922C5.12409 6.1722 5.12998 6.14646 5.13867 6.12402L5.17285 6.06836L5.17871 6.06152L6.85938 4.27051C6.87791 4.261 6.90652 4.24578 6.94043 4.22363C6.9608 4.21995 6.97838 4.21875 6.99219 4.21875C6.99863 4.21875 7.00349 4.21842 7.00684 4.21875L7.04785 4.24023L7.05371 4.24609L8.82715 6.06836C8.8645 6.10673 8.87598 6.1455 8.87598 6.17578C8.87592 6.1908 8.87257 6.20766 8.86523 6.22559L8.82715 6.28223C8.81998 6.28955 8.80163 6.30287 8.77344 6.31445C8.76058 6.31973 8.74926 6.32247 8.74121 6.32422C8.73328 6.32239 8.722 6.3194 8.70996 6.31445L8.65723 6.28223L8.02344 5.63086L7.16504 4.74902V8.43262H10.959C12.2383 8.43262 13.2958 7.43796 13.2959 6.11035C13.2959 4.8057 12.2613 3.72266 10.959 3.72266C10.778 3.72265 10.5939 3.7228 10.3486 3.79785C10.2871 3.80989 10.2433 3.80092 10.2188 3.78906C10.2087 3.78419 10.198 3.77713 10.1875 3.76562L10.1582 3.71582L10.1562 3.71094L10.0518 3.47461C9.48991 2.3198 8.35837 1.5752 7.03125 1.5752C5.70434 1.57535 4.57352 2.31995 4.01172 3.47461L3.90723 3.71094L3.90527 3.71582C3.87949 3.78204 3.84199 3.81402 3.82324 3.82422C3.81904 3.8265 3.81609 3.82763 3.81445 3.82812H3.8125V3.8291H3.81152L3.81055 3.82812C3.8092 3.82788 3.80586 3.82728 3.80078 3.8252L3.7998 3.82617C3.6652 3.76532 3.52948 3.7429 3.42773 3.7334C3.31329 3.72271 3.19413 3.72266 3.10449 3.72266C1.79126 3.72266 0.766602 4.88208 0.766602 6.11035C0.766678 7.3613 1.81345 8.43262 3.10449 8.43262H4.75098C4.82327 8.43262 4.84716 8.45444 4.85254 8.45996C4.85918 8.46681 4.8847 8.49792 4.88477 8.58301C4.88477 8.66695 4.85969 8.69852 4.85254 8.70605C4.84716 8.71158 4.82327 8.73438 4.75098 8.73438H3.10449C1.66953 8.73438 0.500072 7.59064 0.5 6.11035C0.5 4.60965 1.68931 3.4209 3.04102 3.4209H3.70801L3.85254 3.17285C4.53479 2.00489 5.71159 1.27344 6.96875 1.27344Z" stroke="white"/>
</svg>
