<svg width="24" height="25" viewBox="0 0 24 25" fill="none" xmlns="http://www.w3.org/2000/svg">
<path d="M15 10.474L11 14.524L8.99995 12.499M13.246 3.85125L14.467 4.90475C14.7746 5.17017 15.1566 5.33063 15.5594 5.36318L17.1585 5.49221C18.0986 5.56817 18.8453 6.32377 18.9204 7.27566L19.0475 8.89496C19.0797 9.30286 19.2387 9.69013 19.5008 10.0016L20.5409 11.2375C21.1526 11.9643 21.1527 13.0333 20.541 13.7601L19.5009 14.9962C19.2388 15.3077 19.08 15.6951 19.0478 16.103L18.9199 17.722C18.8449 18.6739 18.0993 19.43 17.1591 19.5059L15.5595 19.6352C15.1567 19.6677 14.7744 19.8278 14.4667 20.0932L13.246 21.1467C12.5282 21.7661 11.4717 21.7662 10.7539 21.1468L9.53316 20.0933C9.22555 19.8279 8.84325 19.6675 8.44038 19.635L6.84077 19.5059C5.90064 19.43 5.15505 18.6741 5.08003 17.7222L4.9521 16.1031C4.91995 15.6952 4.76111 15.3081 4.49898 14.9967L3.45894 13.7602C2.84721 13.0334 2.84693 11.9646 3.45865 11.2378L4.49963 10.0014C4.76176 9.68994 4.91908 9.30286 4.95122 8.89496L5.07915 7.27585C5.15417 6.32397 5.90192 5.56807 6.84205 5.49211L8.43989 5.36308C8.84276 5.33052 9.22525 5.1702 9.53285 4.90478L10.754 3.85125C11.4718 3.23188 12.5282 3.23188 13.246 3.85125Z" stroke="#00B5AE" stroke-width="2" stroke-linecap="round" stroke-linejoin="round"/>
</svg>
